# xmcd CD database file
#
# Track frame offsets:
#	150
#	13025
#	24743
#	34877
#	47395
#	59895
#	71584
#	84656
#	98097
#	108367
#	118773
#	128893
#	139647
#
# Disc length: 2030 seconds
#
# Revision: 1
# Processed by: cddbd v1.5.1PL0 Copyright (c) Steve Scherf et al.
# Submitted via: CDex 1.51
#
DISCID=b407ec0d
DTITLE=Sax For Lovers (A Romantic Collection) Performed by The Sensual Horns - Sax For Lovers (A Romantic Collection)
DYEAR=1999
DGENRE=Jazz
TTITLE0=The Shadow Of Your Smile
TTITLE1=Misty
TTITLE2=Tenderly
TTITLE3=September Song
TTITLE4=Someone To Watch Over Me
TTITLE5=You Belong To Me
TTITLE6=Smoke Gets In Your Eyes
TTITLE7=Autumn In New York
TTITLE8=You'll Never Know
TTITLE9=Body And Soul
TTITLE10=Red Sails In The Sunset
TTITLE11=Sounds Of Silence
TTITLE12=The Very Thought Of You
EXTD=YEAR: 1999
EXTT0=
EXTT1=
EXTT2=
EXTT3=
EXTT4=
EXTT5=
EXTT6=
EXTT7=
EXTT8=
EXTT9=
EXTT10=
EXTT11=
EXTT12=
PLAYORDER=
